# xmcd
#
# Track frame offsets:
#	150
#	11242
#	22775
#	37028
#	49077
#	62048
#	74215
#	84871
#	96254
#	107296
#	117100
#	130599
#	138901
#	148143
#	156330
#
# Disc length: 2242 seconds
#
# Revision: 1
# Processed by: cddbd v1.5.2PL0 Copyright (c) Steve Scherf et al.
# Submitted via: audiograbber 1.83.01
#
DISCID=ca08c00f
DTITLE=Various Artist - Legends of country D1
DYEAR=1900
DGENRE=Country
TTITLE0=send me the pillow that you dream on
TTITLE1=you cant put the city in a country girl
TTITLE2=harper valley pta
TTITLE3=last night i heard you crying in your sleep
TTITLE4=it coulda been me
TTITLE5=stand by your man
TTITLE6=cant shake the sands of texas from my shoes
TTITLE7=pick me upon your way down
TTITLE8=suffering in silence
TTITLE9=get rhythm
TTITLE10=tennessee waltz
TTITLE11=abilene
TTITLE12=building heartaches
TTITLE13=hey good lookin
TTITLE14=tumbling tumbleweeds
EXTD=
EXTT0=
EXTT1=
EXTT2=
EXTT3=
EXTT4=
EXTT5=
EXTT6=
EXTT7=
EXTT8=
EXTT9=
EXTT10=
EXTT11=
EXTT12=
EXTT13=
EXTT14=
PLAYORDER=
